<?xml version="1.0" encoding="UTF-8" standalone="no"?>
<!DOCTYPE svg PUBLIC "-//W3C//DTD SVG 1.1//EN" "http://www.w3.org/Graphics/SVG/1.1/DTD/svg11.dtd">
<!-- 由 Microsoft Visio, SVG Export 生成 游戏流程图.svg Page-1 -->
<svg xmlns="http://www.w3.org/2000/svg" xmlns:xlink="http://www.w3.org/1999/xlink" xmlns:ev="http://www.w3.org/2001/xml-events"
		xmlns:v="http://schemas.microsoft.com/visio/2003/SVGExtensions/" width="11.6929in" height="8.26772in"
		viewBox="0 0 841.89 595.276" xml:space="preserve" color-interpolation-filters="sRGB" class="st20">
	<v:documentProperties v:langID="2052" v:metric="true" v:viewMarkup="false">
		<v:userDefs>
			<v:ud v:nameU="msvSubprocessMaster" v:prompt="" v:val="VT4(Rectangle)"/>
			<v:ud v:nameU="msvNoAutoConnect" v:val="VT0(1):26"/>
		</v:userDefs>
	</v:documentProperties>

	<style type="text/css">
	<![CDATA[
		.st1 {fill:url(#grad0-4);stroke:#3c63ac;stroke-width:0.75}
		.st2 {fill:#3c63ac;font-family:黑体;font-size:0.833336em}
		.st3 {fill:#4672c4;stroke:#c7c8c8;stroke-width:0.25}
		.st4 {fill:#feffff;font-family:黑体;font-size:0.833336em}
		.st5 {marker-end:url(#mrkr4-14);stroke:#4672c4;stroke-linecap:round;stroke-linejoin:round;stroke-width:1}
		.st6 {fill:#4672c4;fill-opacity:1;stroke:#4672c4;stroke-opacity:1;stroke-width:0.28409090909091}
		.st7 {stroke:#c7c8c8;stroke-width:0.25}
		.st8 {fill:#4672c4;font-family:黑体;font-size:0.833336em}
		.st9 {marker-end:url(#mrkr4-53);stroke:#70ad47;stroke-linecap:round;stroke-linejoin:round;stroke-width:1}
		.st10 {fill:#70ad47;fill-opacity:1;stroke:#70ad47;stroke-opacity:1;stroke-width:0.28409090909091}
		.st11 {fill:#ffffff;stroke:none;stroke-linecap:butt;stroke-width:7.2}
		.st12 {fill:#61973d;font-family:黑体;font-size:0.666664em}
		.st13 {font-size:1em}
		.st14 {fill:none;stroke:none;stroke-width:0.25}
		.st15 {fill:#4672c4;font-family:黑体;font-size:0.666664em}
		.st16 {fill:#feffff;font-family:Calibri;font-size:0.833336em}
		.st17 {font-family:黑体;font-size:1em}
		.st18 {fill:#3c63ac;font-family:黑体;font-size:0.499992em}
		.st19 {fill:#feffff;font-family:黑体;font-size:0.499992em}
		.st20 {fill:none;fill-rule:evenodd;font-size:12px;overflow:visible;stroke-linecap:square;stroke-miterlimit:3}
	]]>
	</style>

	<defs id="Patterns_And_Gradients">
		<linearGradient id="grad0-4" x1="0" y1="0" x2="1" y2="0" gradientTransform="rotate(60 0.5 0.5)">
			<stop offset="0" stop-color="#e8ebf4" stop-opacity="1"/>
			<stop offset="0.24" stop-color="#f4f5f9" stop-opacity="1"/>
			<stop offset="0.54" stop-color="#feffff" stop-opacity="1"/>
		</linearGradient>
	</defs>
	<defs id="Markers">
		<g id="lend4">
			<path d="M 2 1 L 0 0 L 2 -1 L 2 1 " style="stroke:none"/>
		</g>
		<marker id="mrkr4-14" class="st6" v:arrowType="4" v:arrowSize="2" v:setback="7.04" refX="-7.04" orient="auto"
				markerUnits="strokeWidth" overflow="visible">
			<use xlink:href="#lend4" transform="scale(-3.52,-3.52) "/>
		</marker>
		<marker id="mrkr4-53" class="st10" v:arrowType="4" v:arrowSize="2" v:setback="7.04" refX="-7.04" orient="auto"
				markerUnits="strokeWidth" overflow="visible">
			<use xlink:href="#lend4" transform="scale(-3.52,-3.52) "/>
		</marker>
	</defs>
	<g v:mID="0" v:index="1" v:groupContext="foregroundPage">
		<v:userDefs>
			<v:ud v:nameU="msvThemeOrder" v:val="VT0(0):26"/>
		</v:userDefs>
		<title>页-1</title>
		<v:pageProperties v:drawingScale="0.0393701" v:pageScale="0.0393701" v:drawingUnits="24" v:shadowOffsetX="8.50394"
				v:shadowOffsetY="-8.50394"/>
		<v:layer v:name="连接线" v:index="0"/>
		<g id="shape1-1" v:mID="1" v:groupContext="shape" transform="translate(63.048,-362.48)">
			<title>圆角矩形</title>
			<desc>游戏开始</desc>
			<v:userDefs>
				<v:ud v:nameU="CTypeTopLeftSnip" v:prompt="" v:val="VT0(0):5"/>
				<v:ud v:nameU="CTypeTopRightSnip" v:prompt="" v:val="VT0(0):5"/>
				<v:ud v:nameU="CTypeBotLeftSnip" v:prompt="" v:val="VT0(0):5"/>
				<v:ud v:nameU="CTypeBotRightSnip" v:prompt="" v:val="VT0(0):5"/>
				<v:ud v:nameU="CornerLockHoriz" v:prompt="" v:val="VT0(1):5"/>
				<v:ud v:nameU="CornerLockVert" v:prompt="" v:val="VT0(1):5"/>
				<v:ud v:nameU="CornerLockDiag" v:prompt="" v:val="VT0(0):5"/>
				<v:ud v:nameU="TopLeftOffset" v:prompt="" v:val="VT0(0.15748031496063):24"/>
				<v:ud v:nameU="TopRightOffset" v:prompt="" v:val="VT0(0.15748031496063):24"/>
				<v:ud v:nameU="BotLeftOffset" v:prompt="" v:val="VT0(0.15748031496063):24"/>
				<v:ud v:nameU="BotRightOffset" v:prompt="" v:val="VT0(0.15748031496063):24"/>
				<v:ud v:nameU="visVersion" v:prompt="" v:val="VT0(15):26"/>
				<v:ud v:nameU="TopLeftOffset" v:prompt="" v:val="VT0(0.074803151635723):1"/>
				<v:ud v:nameU="TopRightOffset" v:prompt="" v:val="VT0(0.074803151635723):1"/>
				<v:ud v:nameU="BotLeftOffset" v:prompt="" v:val="VT0(0.074803151635723):1"/>
				<v:ud v:nameU="BotRightOffset" v:prompt="" v:val="VT0(0.074803151635723):1"/>
			</v:userDefs>
			<v:textBlock v:margins="rect(4,4,4,4)" v:tabSpace="42.5197"/>
			<v:textRect cx="26.9291" cy="575.079" width="53.86" height="40.3937"/>
			<path d="M5.39 595.28 L48.47 595.28 A5.38574 5.38574 -180 0 0 53.86 589.89 L53.86 560.27 A5.38574 5.38574 -180 0 0 48.47
						 554.88 L5.39 554.88 A5.38574 5.38574 -180 0 0 0 560.27 L0 589.89 A5.38574 5.38574 -180 0 0 5.39 595.28 Z"
					class="st1"/>
			<text x="6.93" y="578.41" class="st2" v:langID="2052"><v:paragraph v:horizAlign="1"/><v:tabList/>游戏开始</text>		</g>
		<g id="shape2-6" v:mID="2" v:groupContext="shape" transform="translate(65.1969,-278.504)">
			<title>正方形</title>
			<desc>单场对局</desc>
			<v:userDefs>
				<v:ud v:nameU="visVersion" v:val="VT0(15):26"/>
			</v:userDefs>
			<v:textBlock v:margins="rect(4,4,4,4)" v:tabSpace="42.5197"/>
			<v:textRect cx="24.7803" cy="570.495" width="49.57" height="49.5606"/>
			<rect x="0" y="545.715" width="49.5606" height="49.5606" class="st3"/>
			<text x="4.78" y="573.82" class="st4" v:langID="2052"><v:paragraph v:horizAlign="1"/><v:tabList/>单场对局</text>		</g>
		<g id="shape3-9" v:mID="3" v:groupContext="shape" v:layerMember="0" transform="translate(82.8905,-362.48)">
			<title>动态连接线</title>
			<path d="M7.09 595.28 L7.09 622.65" class="st5"/>
		</g>
		<g id="shape5-15" v:mID="5" v:groupContext="shape" transform="translate(63.048,-155.906)">
			<title>圆角矩形.5</title>
			<desc>游戏结束</desc>
			<v:userDefs>
				<v:ud v:nameU="CTypeTopLeftSnip" v:prompt="" v:val="VT0(0):5"/>
				<v:ud v:nameU="CTypeTopRightSnip" v:prompt="" v:val="VT0(0):5"/>
				<v:ud v:nameU="CTypeBotLeftSnip" v:prompt="" v:val="VT0(0):5"/>
				<v:ud v:nameU="CTypeBotRightSnip" v:prompt="" v:val="VT0(0):5"/>
				<v:ud v:nameU="CornerLockHoriz" v:prompt="" v:val="VT0(1):5"/>
				<v:ud v:nameU="CornerLockVert" v:prompt="" v:val="VT0(1):5"/>
				<v:ud v:nameU="CornerLockDiag" v:prompt="" v:val="VT0(0):5"/>
				<v:ud v:nameU="TopLeftOffset" v:prompt="" v:val="VT0(0.15748031496063):24"/>
				<v:ud v:nameU="TopRightOffset" v:prompt="" v:val="VT0(0.15748031496063):24"/>
				<v:ud v:nameU="BotLeftOffset" v:prompt="" v:val="VT0(0.15748031496063):24"/>
				<v:ud v:nameU="BotRightOffset" v:prompt="" v:val="VT0(0.15748031496063):24"/>
				<v:ud v:nameU="visVersion" v:prompt="" v:val="VT0(15):26"/>
				<v:ud v:nameU="TopLeftOffset" v:prompt="" v:val="VT0(0.074803151635723):1"/>
				<v:ud v:nameU="TopRightOffset" v:prompt="" v:val="VT0(0.074803151635723):1"/>
				<v:ud v:nameU="BotLeftOffset" v:prompt="" v:val="VT0(0.074803151635723):1"/>
				<v:ud v:nameU="BotRightOffset" v:prompt="" v:val="VT0(0.074803151635723):1"/>
			</v:userDefs>
			<v:textBlock v:margins="rect(4,4,4,4)" v:tabSpace="42.5197"/>
			<v:textRect cx="26.9291" cy="575.079" width="53.86" height="40.3937"/>
			<path d="M5.39 595.28 L48.47 595.28 A5.38574 5.38574 -180 0 0 53.86 589.89 L53.86 560.27 A5.38574 5.38574 -180 0 0 48.47
						 554.88 L5.39 554.88 A5.38574 5.38574 -180 0 0 0 560.27 L0 589.89 A5.38574 5.38574 -180 0 0 5.39 595.28 Z"
					class="st1"/>
			<text x="6.93" y="578.41" class="st2" v:langID="2052"><v:paragraph v:horizAlign="1"/><v:tabList/>游戏结束</text>		</g>
		<g id="shape7-19" v:mID="7" v:groupContext="shape" v:layerMember="0" transform="translate(97.0638,-278.504)">
			<title>动态连接线.7</title>
			<path d="M-7.09 595.28 L-7.09 670.44" class="st5"/>
		</g>
		<g id="shape8-24" v:mID="8" v:groupContext="shape" transform="translate(123.307,-18)">
			<title>左括号</title>
			<desc>单场对局中</desc>
			<v:userDefs>
				<v:ud v:nameU="visVersion" v:prompt="" v:val="VT0(15):26"/>
			</v:userDefs>
			<v:textBlock v:margins="rect(4,4,4,4)" v:tabSpace="42.5197"/>
			<v:textRect cx="37.5591" cy="315.638" width="75.12" height="559.276"/>
			<path d="M75.12 595.28 A100.568 93.5948 0 0 1 37.56 539.35 L37.56 315.64 L0 315.64 L37.56 315.64 L37.56 91.93 A100.568
						 93.5948 0 0 1 75.12 36" class="st7"/>
			<text x="12.56" y="318.97" class="st8" v:langID="2052"><v:paragraph v:horizAlign="1"/><v:tabList/>单场对局中</text>		</g>
		<g id="shape9-28" v:mID="9" v:groupContext="shape" transform="translate(219.685,-536.882)">
			<title>圆角矩形.9</title>
			<desc>场开始</desc>
			<v:userDefs>
				<v:ud v:nameU="CTypeTopLeftSnip" v:prompt="" v:val="VT0(0):5"/>
				<v:ud v:nameU="CTypeTopRightSnip" v:prompt="" v:val="VT0(0):5"/>
				<v:ud v:nameU="CTypeBotLeftSnip" v:prompt="" v:val="VT0(0):5"/>
				<v:ud v:nameU="CTypeBotRightSnip" v:prompt="" v:val="VT0(0):5"/>
				<v:ud v:nameU="CornerLockHoriz" v:prompt="" v:val="VT0(1):5"/>
				<v:ud v:nameU="CornerLockVert" v:prompt="" v:val="VT0(1):5"/>
				<v:ud v:nameU="CornerLockDiag" v:prompt="" v:val="VT0(0):5"/>
				<v:ud v:nameU="TopLeftOffset" v:prompt="" v:val="VT0(0.15748031496063):24"/>
				<v:ud v:nameU="TopRightOffset" v:prompt="" v:val="VT0(0.15748031496063):24"/>
				<v:ud v:nameU="BotLeftOffset" v:prompt="" v:val="VT0(0.15748031496063):24"/>
				<v:ud v:nameU="BotRightOffset" v:prompt="" v:val="VT0(0.15748031496063):24"/>
				<v:ud v:nameU="visVersion" v:prompt="" v:val="VT0(15):26"/>
				<v:ud v:nameU="TopLeftOffset" v:prompt="" v:val="VT0(0.074803151635722):1"/>
				<v:ud v:nameU="TopRightOffset" v:prompt="" v:val="VT0(0.074803151635722):1"/>
				<v:ud v:nameU="BotLeftOffset" v:prompt="" v:val="VT0(0.074803151635722):1"/>
				<v:ud v:nameU="BotRightOffset" v:prompt="" v:val="VT0(0.074803151635722):1"/>
			</v:userDefs>
			<v:textBlock v:margins="rect(4,4,4,4)" v:tabSpace="42.5197"/>
			<v:textRect cx="26.9291" cy="575.079" width="53.86" height="40.3937"/>
			<path d="M5.39 595.28 L48.47 595.28 A5.38574 5.38574 -180 0 0 53.86 589.89 L53.86 560.27 A5.38574 5.38574 -180 0 0 48.47
						 554.88 L5.39 554.88 A5.38574 5.38574 -180 0 0 0 560.27 L0 589.89 A5.38574 5.38574 -180 0 0 5.39 595.28 Z"
					class="st1"/>
			<text x="11.93" y="578.41" class="st2" v:langID="2052"><v:paragraph v:horizAlign="1"/><v:tabList/>场开始</text>		</g>
		<g id="shape11-32" v:mID="11" v:groupContext="shape" transform="translate(223.983,-464.916)">
			<title>矩形</title>
			<desc>初始化</desc>
			<v:userDefs>
				<v:ud v:nameU="visVersion" v:val="VT0(15):26"/>
			</v:userDefs>
			<v:textBlock v:margins="rect(4,4,4,4)" v:tabSpace="42.5197"/>
			<v:textRect cx="22.6314" cy="578.302" width="45.27" height="33.9472"/>
			<rect x="0" y="561.328" width="45.2629" height="33.9472" class="st3"/>
			<text x="7.63" y="581.63" class="st4" v:langID="2052"><v:paragraph v:horizAlign="1"/><v:tabList/>初始化</text>		</g>
		<g id="shape12-35" v:mID="12" v:groupContext="shape" v:layerMember="0" transform="translate(239.528,-536.882)">
			<title>动态连接线.12</title>
			<path d="M7.09 595.28 L7.09 626.25" class="st5"/>
		</g>
		<g id="shape15-40" v:mID="15" v:groupContext="shape" transform="translate(214.016,-326.693)">
			<title>矩形.15</title>
			<desc>出牌轮</desc>
			<v:userDefs>
				<v:ud v:nameU="visVersion" v:val="VT0(15):26"/>
			</v:userDefs>
			<v:textBlock v:margins="rect(4,4,4,4)" v:tabSpace="42.5197"/>
			<v:textRect cx="32.5984" cy="570.827" width="65.2" height="48.8976"/>
			<rect x="0" y="546.378" width="65.1969" height="48.8976" class="st3"/>
			<text x="17.6" y="574.15" class="st4" v:langID="2052"><v:paragraph v:horizAlign="1"/><v:tabList/>出牌轮</text>		</g>
		<g id="shape16-43" v:mID="16" v:groupContext="shape" v:layerMember="0" transform="translate(239.528,-464.916)">
			<title>动态连接线.16</title>
			<path d="M7.09 595.28 L7.09 677.56" class="st5"/>
		</g>
		<g id="shape17-48" v:mID="17" v:groupContext="shape" v:layerMember="0" transform="translate(239.528,-326.693)">
			<title>动态连接线.17</title>
			<desc>至少有一个人继续 出牌</desc>
			<v:textBlock v:margins="rect(4,4,4,4)" v:tabSpace="42.5197"/>
			<v:textRect cx="-61.937" cy="569.583" width="73.82" height="29.3037"/>
			<path d="M7.09 595.28 L7.09 613.28 L-62.36 613.28 L-62.36 528.38 L7.09 528.38 L7.09 539.34" class="st9"/>
			<rect v:rectContext="textBkgnd" x="-93.9368" y="558.934" width="63.9998" height="21.3" class="st11"/>
			<text x="-93.94" y="566.92" class="st12" v:langID="2052"><v:paragraph v:horizAlign="1"/><v:tabList/>至少有一个人继续<v:newlineChar/><tspan
						x="-69.94" dy="1.331em" class="st13">出牌</tspan></text>		</g>
		<g id="shape18-57" v:mID="18" v:groupContext="shape" v:layerMember="0" transform="translate(82.8905,-278.504)">
			<title>动态连接线.18</title>
			<desc>进行三场</desc>
			<v:textBlock v:margins="rect(4,4,4,4)" v:tabSpace="42.5197"/>
			<v:textRect cx="-47.4575" cy="570.495" width="41.82" height="18.6536"/>
			<path d="M7.09 595.28 L7.09 613.28 L-47.46 613.28 L-47.46 527.72 L7.09 527.72 L7.09 538.68" class="st9"/>
			<rect v:rectContext="textBkgnd" x="-63.4573" y="565.171" width="31.9999" height="10.6501" class="st11"/>
			<text x="-63.46" y="573.16" class="st12" v:langID="2052"><v:paragraph v:horizAlign="1"/><v:tabList/>进行三场</text>		</g>
		<g id="shape20-64" v:mID="20" v:groupContext="shape" transform="translate(219.685,-148.819)">
			<title>矩形.20</title>
			<desc>结算</desc>
			<v:userDefs>
				<v:ud v:nameU="visVersion" v:val="VT0(15):26"/>
			</v:userDefs>
			<v:textBlock v:margins="rect(4,4,4,4)" v:tabSpace="42.5197"/>
			<v:textRect cx="26.9291" cy="575.079" width="53.86" height="40.3937"/>
			<rect x="0" y="554.882" width="53.8583" height="40.3937" class="st3"/>
			<text x="16.93" y="578.41" class="st4" v:langID="2052"><v:paragraph v:horizAlign="1"/><v:tabList/>结算</text>		</g>
		<g id="shape21-67" v:mID="21" v:groupContext="shape" v:layerMember="0" transform="translate(239.528,-326.693)">
			<title>动态连接线.21</title>
			<path d="M7.09 595.28 L7.09 725.72" class="st5"/>
		</g>
		<g id="shape22-72" v:mID="22" v:groupContext="shape" transform="translate(219.685,-18)">
			<title>圆角矩形.22</title>
			<desc>场结束</desc>
			<v:userDefs>
				<v:ud v:nameU="CTypeTopLeftSnip" v:prompt="" v:val="VT0(0):5"/>
				<v:ud v:nameU="CTypeTopRightSnip" v:prompt="" v:val="VT0(0):5"/>
				<v:ud v:nameU="CTypeBotLeftSnip" v:prompt="" v:val="VT0(0):5"/>
				<v:ud v:nameU="CTypeBotRightSnip" v:prompt="" v:val="VT0(0):5"/>
				<v:ud v:nameU="CornerLockHoriz" v:prompt="" v:val="VT0(1):5"/>
				<v:ud v:nameU="CornerLockVert" v:prompt="" v:val="VT0(1):5"/>
				<v:ud v:nameU="CornerLockDiag" v:prompt="" v:val="VT0(0):5"/>
				<v:ud v:nameU="TopLeftOffset" v:prompt="" v:val="VT0(0.15748031496063):24"/>
				<v:ud v:nameU="TopRightOffset" v:prompt="" v:val="VT0(0.15748031496063):24"/>
				<v:ud v:nameU="BotLeftOffset" v:prompt="" v:val="VT0(0.15748031496063):24"/>
				<v:ud v:nameU="BotRightOffset" v:prompt="" v:val="VT0(0.15748031496063):24"/>
				<v:ud v:nameU="visVersion" v:prompt="" v:val="VT0(15):26"/>
				<v:ud v:nameU="TopLeftOffset" v:prompt="" v:val="VT0(0.074803151635723):1"/>
				<v:ud v:nameU="TopRightOffset" v:prompt="" v:val="VT0(0.074803151635723):1"/>
				<v:ud v:nameU="BotLeftOffset" v:prompt="" v:val="VT0(0.074803151635723):1"/>
				<v:ud v:nameU="BotRightOffset" v:prompt="" v:val="VT0(0.074803151635723):1"/>
			</v:userDefs>
			<v:textBlock v:margins="rect(4,4,4,4)" v:tabSpace="42.5197"/>
			<v:textRect cx="26.9291" cy="575.079" width="53.86" height="40.3937"/>
			<path d="M5.39 595.28 L48.47 595.28 A5.38574 5.38574 -180 0 0 53.86 589.89 L53.86 560.27 A5.38574 5.38574 -180 0 0 48.47
						 554.88 L5.39 554.88 A5.38574 5.38574 -180 0 0 0 560.27 L0 589.89 A5.38574 5.38574 -180 0 0 5.39 595.28 Z"
					class="st1"/>
			<text x="11.93" y="578.41" class="st2" v:langID="2052"><v:paragraph v:horizAlign="1"/><v:tabList/>场结束</text>		</g>
		<g id="shape23-76" v:mID="23" v:groupContext="shape" v:layerMember="0" transform="translate(239.528,-148.819)">
			<title>动态连接线.23</title>
			<path d="M7.09 595.28 L7.09 678.66" class="st5"/>
		</g>
		<g id="shape25-81" v:mID="25" v:groupContext="shape" transform="translate(269.291,-453.543)">
			<title>左括号.25</title>
			<v:userDefs>
				<v:ud v:nameU="visVersion" v:prompt="" v:val="VT0(15):26"/>
			</v:userDefs>
			<path d="M14.17 595.28 A18.9751 9.48756 0 0 1 7.09 589.61 L7.09 566.93 L0 566.93 L7.09 566.93 L7.09 544.25 A18.9751 9.48756
						 0 0 1 14.17 538.58" class="st7"/>
		</g>
		<g id="shape26-84" v:mID="26" v:groupContext="shape" transform="translate(283.51,-441.626)">
			<title>工作表.26</title>
			<desc>初始化在轮流出牌之前。用于初始化各种因素诸如环境、天气等。</desc>
			<v:textBlock v:margins="rect(4,4,4,4)" v:tabSpace="42.5197"/>
			<v:textRect cx="30.1981" cy="555.011" width="60.4" height="80.5283"/>
			<rect x="0" y="514.747" width="60.3962" height="80.5283" class="st14"/>
			<text x="6.2" y="537.69" class="st15" v:langID="2052"><v:paragraph v:horizAlign="1"/><v:tabList/>初始化在轮流<tspan x="6.2"
						dy="1.2em" class="st13">出牌之前</tspan>。用<tspan x="6.2" dy="1.2em" class="st13">于初始化各种</tspan><tspan x="6.2"
						dy="1.2em" class="st13">因素</tspan>，诸如环<tspan x="6.2" dy="1.298em" class="st13">境</tspan>、天气等。</text>		</g>
		<g id="shape30-91" v:mID="30" v:groupContext="shape" transform="translate(276.378,-127.559)">
			<title>左括号.30</title>
			<v:userDefs>
				<v:ud v:nameU="visVersion" v:prompt="" v:val="VT0(15):26"/>
			</v:userDefs>
			<path d="M240.94 595.28 A322.577 75.2601 0 0 1 120.47 550.3 L120.47 370.42 L0 370.42 L120.47 370.42 L120.47 190.53 A322.577
						 75.2601 0 0 1 240.94 145.56" class="st7"/>
		</g>
		<g id="shape31-94" v:mID="31" v:groupContext="shape" transform="translate(273.635,-129.696)">
			<title>左括号.31</title>
			<v:userDefs>
				<v:ud v:nameU="visVersion" v:prompt="" v:val="VT0(15):26"/>
			</v:userDefs>
			<path d="M19.66 595.28 A26.3203 13.1602 0 0 1 9.83 587.41 L9.83 555.96 L0 555.96 L9.83 555.96 L9.83 524.5 A26.3203 13.1602
						 0 0 1 19.66 516.64" class="st7"/>
		</g>
		<g id="shape32-97" v:mID="32" v:groupContext="shape" transform="translate(293.386,-126.828)">
			<title>工作表.32</title>
			<desc>结算在双方都不出牌之后。结算优先结算技能和效果最后再结算分数。</desc>
			<v:textBlock v:margins="rect(4,4,4,4)" v:tabSpace="42.5197"/>
			<v:textRect cx="37.5591" cy="553.087" width="75.12" height="84.3765"/>
			<rect x="0" y="510.899" width="75.1181" height="84.3765" class="st14"/>
			<text x="5.56" y="540.56" class="st15" v:langID="2052"><v:paragraph v:horizAlign="1"/><v:tabList/>结算在双方都不出<tspan
						x="5.56" dy="1.2em" class="st13">牌之后</tspan>。结算优先<tspan x="5.56" dy="1.2em" class="st13">结算技能和效果</tspan>，<tspan
						x="5.56" dy="1.298em" class="st13">最后再结算分数</tspan>。</text>		</g>
		<g id="shape38-103" v:mID="38" v:groupContext="shape" transform="translate(520.157,-547.512)">
			<title>圆角矩形.38</title>
			<desc>轮开始</desc>
			<v:userDefs>
				<v:ud v:nameU="CTypeTopLeftSnip" v:prompt="" v:val="VT0(0):5"/>
				<v:ud v:nameU="CTypeTopRightSnip" v:prompt="" v:val="VT0(0):5"/>
				<v:ud v:nameU="CTypeBotLeftSnip" v:prompt="" v:val="VT0(0):5"/>
				<v:ud v:nameU="CTypeBotRightSnip" v:prompt="" v:val="VT0(0):5"/>
				<v:ud v:nameU="CornerLockHoriz" v:prompt="" v:val="VT0(1):5"/>
				<v:ud v:nameU="CornerLockVert" v:prompt="" v:val="VT0(1):5"/>
				<v:ud v:nameU="CornerLockDiag" v:prompt="" v:val="VT0(0):5"/>
				<v:ud v:nameU="TopLeftOffset" v:prompt="" v:val="VT0(0.15748031496063):24"/>
				<v:ud v:nameU="TopRightOffset" v:prompt="" v:val="VT0(0.15748031496063):24"/>
				<v:ud v:nameU="BotLeftOffset" v:prompt="" v:val="VT0(0.15748031496063):24"/>
				<v:ud v:nameU="BotRightOffset" v:prompt="" v:val="VT0(0.15748031496063):24"/>
				<v:ud v:nameU="visVersion" v:prompt="" v:val="VT0(15):26"/>
				<v:ud v:nameU="TopLeftOffset" v:prompt="" v:val="VT0(0.055118107459115):1"/>
				<v:ud v:nameU="TopRightOffset" v:prompt="" v:val="VT0(0.055118107459115):1"/>
				<v:ud v:nameU="BotLeftOffset" v:prompt="" v:val="VT0(0.055118107459115):1"/>
				<v:ud v:nameU="BotRightOffset" v:prompt="" v:val="VT0(0.055118107459115):1"/>
			</v:userDefs>
			<v:textBlock v:margins="rect(4,4,4,4)" v:tabSpace="42.5197"/>
			<v:textRect cx="19.8425" cy="580.394" width="39.69" height="29.7638"/>
			<path d="M3.97 595.28 L35.72 595.28 A3.96844 3.96844 -180 0 0 39.69 591.31 L39.69 569.48 A3.96844 3.96844 -180 0 0 35.72
						 565.51 L3.97 565.51 A3.96844 3.96844 -180 0 0 -0 569.48 L0 591.31 A3.96844 3.96844 -180 0 0 3.97 595.28
						 Z" class="st1"/>
			<text x="4.84" y="583.72" class="st2" v:langID="2052"><v:paragraph v:horizAlign="1"/><v:tabList/>轮开始</text>		</g>
		<g id="shape39-107" v:mID="39" v:groupContext="shape" transform="translate(520.157,-488.976)">
			<title>矩形.39</title>
			<desc>初始化</desc>
			<v:userDefs>
				<v:ud v:nameU="visVersion" v:val="VT0(15):26"/>
			</v:userDefs>
			<v:textBlock v:margins="rect(4,4,4,4)" v:tabSpace="42.5197"/>
			<v:textRect cx="19.8425" cy="580.394" width="39.69" height="29.7638"/>
			<rect x="0" y="565.512" width="39.685" height="29.7638" class="st3"/>
			<text x="4.84" y="583.72" class="st4" v:langID="2052"><v:paragraph v:horizAlign="1"/><v:tabList/>初始化</text>		</g>
		<g id="shape40-110" v:mID="40" v:groupContext="shape" transform="translate(513.071,-396.85)">
			<title>矩形.40</title>
			<desc>P1出牌</desc>
			<v:userDefs>
				<v:ud v:nameU="visVersion" v:val="VT0(15):26"/>
			</v:userDefs>
			<v:textBlock v:margins="rect(4,4,4,4)" v:tabSpace="42.5197"/>
			<v:textRect cx="26.9291" cy="575.079" width="53.86" height="40.3937"/>
			<rect x="0" y="554.882" width="53.8583" height="40.3937" class="st3"/>
			<text x="11.81" y="578.41" class="st16" v:langID="2052"><v:paragraph v:horizAlign="1"/><v:tabList/>P1<tspan
						class="st17">出牌</tspan></text>		</g>
		<g id="shape41-114" v:mID="41" v:groupContext="shape" transform="translate(513.071,-283.465)">
			<title>矩形.41</title>
			<desc>P2出牌</desc>
			<v:userDefs>
				<v:ud v:nameU="visVersion" v:val="VT0(15):26"/>
			</v:userDefs>
			<v:textBlock v:margins="rect(4,4,4,4)" v:tabSpace="42.5197"/>
			<v:textRect cx="26.9291" cy="575.079" width="53.86" height="40.3937"/>
			<rect x="0" y="554.882" width="53.8583" height="40.3937" class="st3"/>
			<text x="11.81" y="578.41" class="st16" v:langID="2052"><v:paragraph v:horizAlign="1"/><v:tabList/>P2<tspan
						class="st17">出牌</tspan></text>		</g>
		<g id="shape42-118" v:mID="42" v:groupContext="shape" transform="translate(520.157,-197.008)">
			<title>矩形.42</title>
			<desc>结算</desc>
			<v:userDefs>
				<v:ud v:nameU="visVersion" v:val="VT0(15):26"/>
			</v:userDefs>
			<v:textBlock v:margins="rect(4,4,4,4)" v:tabSpace="42.5197"/>
			<v:textRect cx="19.8425" cy="580.394" width="39.69" height="29.7638"/>
			<rect x="0" y="565.512" width="39.685" height="29.7638" class="st3"/>
			<text x="9.84" y="583.72" class="st4" v:langID="2052"><v:paragraph v:horizAlign="1"/><v:tabList/>结算</text>		</g>
		<g id="shape43-121" v:mID="43" v:groupContext="shape" transform="translate(520.157,-127.559)">
			<title>圆角矩形.43</title>
			<desc>轮结束</desc>
			<v:userDefs>
				<v:ud v:nameU="CTypeTopLeftSnip" v:prompt="" v:val="VT0(0):5"/>
				<v:ud v:nameU="CTypeTopRightSnip" v:prompt="" v:val="VT0(0):5"/>
				<v:ud v:nameU="CTypeBotLeftSnip" v:prompt="" v:val="VT0(0):5"/>
				<v:ud v:nameU="CTypeBotRightSnip" v:prompt="" v:val="VT0(0):5"/>
				<v:ud v:nameU="CornerLockHoriz" v:prompt="" v:val="VT0(1):5"/>
				<v:ud v:nameU="CornerLockVert" v:prompt="" v:val="VT0(1):5"/>
				<v:ud v:nameU="CornerLockDiag" v:prompt="" v:val="VT0(0):5"/>
				<v:ud v:nameU="TopLeftOffset" v:prompt="" v:val="VT0(0.15748031496063):24"/>
				<v:ud v:nameU="TopRightOffset" v:prompt="" v:val="VT0(0.15748031496063):24"/>
				<v:ud v:nameU="BotLeftOffset" v:prompt="" v:val="VT0(0.15748031496063):24"/>
				<v:ud v:nameU="BotRightOffset" v:prompt="" v:val="VT0(0.15748031496063):24"/>
				<v:ud v:nameU="visVersion" v:prompt="" v:val="VT0(15):26"/>
				<v:ud v:nameU="TopLeftOffset" v:prompt="" v:val="VT0(0.055118107459116):1"/>
				<v:ud v:nameU="TopRightOffset" v:prompt="" v:val="VT0(0.055118107459116):1"/>
				<v:ud v:nameU="BotLeftOffset" v:prompt="" v:val="VT0(0.055118107459116):1"/>
				<v:ud v:nameU="BotRightOffset" v:prompt="" v:val="VT0(0.055118107459116):1"/>
			</v:userDefs>
			<v:textBlock v:margins="rect(4,4,4,4)" v:tabSpace="42.5197"/>
			<v:textRect cx="19.8425" cy="580.394" width="39.69" height="29.7638"/>
			<path d="M3.97 595.28 L35.72 595.28 A3.96844 3.96844 -180 0 0 39.69 591.31 L39.69 569.48 A3.96844 3.96844 -180 0 0 35.72
						 565.51 L3.97 565.51 A3.96844 3.96844 -180 0 0 0 569.48 L0 591.31 A3.96844 3.96844 -180 0 0 3.97 595.28 Z"
					class="st1"/>
			<text x="4.84" y="583.72" class="st2" v:langID="2052"><v:paragraph v:horizAlign="1"/><v:tabList/>轮结束</text>		</g>
		<g id="shape44-125" v:mID="44" v:groupContext="shape" v:layerMember="0" transform="translate(532.913,-547.512)">
			<title>动态连接线.44</title>
			<path d="M7.09 595.28 L7.09 617.01" class="st5"/>
		</g>
		<g id="shape45-130" v:mID="45" v:groupContext="shape" v:layerMember="0" transform="translate(532.913,-488.976)">
			<title>动态连接线.45</title>
			<path d="M7.09 595.28 L7.09 639.97" class="st5"/>
		</g>
		<g id="shape46-135" v:mID="46" v:groupContext="shape" v:layerMember="0" transform="translate(547.087,-396.85)">
			<title>动态连接线.46</title>
			<path d="M-7.09 595.28 L-7.09 661.23" class="st5"/>
		</g>
		<g id="shape47-140" v:mID="47" v:groupContext="shape" v:layerMember="0" transform="translate(532.913,-283.465)">
			<title>动态连接线.47</title>
			<path d="M7.09 595.28 L7.09 644.93" class="st5"/>
		</g>
		<g id="shape48-145" v:mID="48" v:groupContext="shape" v:layerMember="0" transform="translate(532.913,-197.008)">
			<title>动态连接线.48</title>
			<path d="M7.09 595.28 L7.09 627.92" class="st5"/>
		</g>
		<g id="shape49-150" v:mID="49" v:groupContext="shape" transform="translate(559.843,-475.512)">
			<title>左括号.49</title>
			<v:userDefs>
				<v:ud v:nameU="visVersion" v:prompt="" v:val="VT0(15):26"/>
			</v:userDefs>
			<path d="M14.17 595.28 A18.9751 9.48756 0 0 1 7.09 589.61 L7.09 566.93 L0 566.93 L7.09 566.93 L7.09 544.25 A18.9751 9.48756
						 0 0 1 14.17 538.58" class="st7"/>
		</g>
		<g id="shape50-153" v:mID="50" v:groupContext="shape" transform="translate(574.016,-474.803)">
			<title>工作表.50</title>
			<desc>判断轮初效果</desc>
			<v:textBlock v:margins="rect(4,4,4,4)" v:tabSpace="42.5197"/>
			<v:textRect cx="22.6772" cy="566.575" width="45.36" height="57.4016"/>
			<rect x="0" y="537.874" width="45.3543" height="57.4016" class="st14"/>
			<text x="6.68" y="563.65" class="st15" v:langID="2052"><v:paragraph v:horizAlign="1"/><v:tabList/>判断轮初<tspan x="14.68"
						dy="1.298em" class="st13">效果</tspan></text>		</g>
		<g id="shape56-157" v:mID="56" v:groupContext="shape" transform="translate(559.843,-184.252)">
			<title>左括号.56</title>
			<v:userDefs>
				<v:ud v:nameU="visVersion" v:prompt="" v:val="VT0(15):26"/>
			</v:userDefs>
			<path d="M14.17 595.28 A18.9751 9.48756 0 0 1 7.09 589.61 L7.09 566.93 L0 566.93 L7.09 566.93 L7.09 544.25 A18.9751 9.48756
						 0 0 1 14.17 538.58" class="st7"/>
		</g>
		<g id="shape57-160" v:mID="57" v:groupContext="shape" transform="translate(574.016,-183.543)">
			<title>工作表.57</title>
			<desc>判断轮末效果</desc>
			<v:textBlock v:margins="rect(4,4,4,4)" v:tabSpace="42.5197"/>
			<v:textRect cx="22.6772" cy="566.575" width="45.36" height="57.4016"/>
			<rect x="0" y="537.874" width="45.3543" height="57.4016" class="st14"/>
			<text x="6.68" y="563.65" class="st15" v:langID="2052"><v:paragraph v:horizAlign="1"/><v:tabList/>判断轮末<tspan x="14.68"
						dy="1.298em" class="st13">效果</tspan></text>		</g>
		<g id="shape58-164" v:mID="58" v:groupContext="shape" transform="translate(566.929,-360.354)">
			<title>左括号.58</title>
			<v:userDefs>
				<v:ud v:nameU="visVersion" v:prompt="" v:val="VT0(15):26"/>
			</v:userDefs>
			<path d="M28.35 595.28 A37.9502 18.9751 0 0 1 14.17 583.94 L14.17 538.58 L0 538.58 L14.17 538.58 L14.17 493.23 A37.9502
						 18.9751 0 0 1 28.35 481.89" class="st7"/>
		</g>
		<g id="shape59-167" v:mID="59" v:groupContext="shape" transform="translate(566.929,-246.969)">
			<title>左括号.59</title>
			<v:userDefs>
				<v:ud v:nameU="visVersion" v:prompt="" v:val="VT0(15):26"/>
			</v:userDefs>
			<path d="M28.35 595.28 A37.9502 18.9751 0 0 1 14.17 583.94 L14.17 538.58 L0 538.58 L14.17 538.58 L14.17 493.23 A37.9502
						 18.9751 0 0 1 28.35 481.89" class="st7"/>
		</g>
		<g id="shape60-170" v:mID="60" v:groupContext="shape" transform="translate(599.528,-463.11)">
			<title>圆角矩形.60</title>
			<desc>出牌开始</desc>
			<v:userDefs>
				<v:ud v:nameU="CTypeTopLeftSnip" v:prompt="" v:val="VT0(0):5"/>
				<v:ud v:nameU="CTypeTopRightSnip" v:prompt="" v:val="VT0(0):5"/>
				<v:ud v:nameU="CTypeBotLeftSnip" v:prompt="" v:val="VT0(0):5"/>
				<v:ud v:nameU="CTypeBotRightSnip" v:prompt="" v:val="VT0(0):5"/>
				<v:ud v:nameU="CornerLockHoriz" v:prompt="" v:val="VT0(1):5"/>
				<v:ud v:nameU="CornerLockVert" v:prompt="" v:val="VT0(1):5"/>
				<v:ud v:nameU="CornerLockDiag" v:prompt="" v:val="VT0(0):5"/>
				<v:ud v:nameU="TopLeftOffset" v:prompt="" v:val="VT0(0.15748031496063):24"/>
				<v:ud v:nameU="TopRightOffset" v:prompt="" v:val="VT0(0.15748031496063):24"/>
				<v:ud v:nameU="BotLeftOffset" v:prompt="" v:val="VT0(0.15748031496063):24"/>
				<v:ud v:nameU="BotRightOffset" v:prompt="" v:val="VT0(0.15748031496063):24"/>
				<v:ud v:nameU="visVersion" v:prompt="" v:val="VT0(15):26"/>
				<v:ud v:nameU="TopLeftOffset" v:prompt="" v:val="VT0(0.02952755852106):1"/>
				<v:ud v:nameU="TopRightOffset" v:prompt="" v:val="VT0(0.02952755852106):1"/>
				<v:ud v:nameU="BotLeftOffset" v:prompt="" v:val="VT0(0.02952755852106):1"/>
				<v:ud v:nameU="BotRightOffset" v:prompt="" v:val="VT0(0.02952755852106):1"/>
			</v:userDefs>
			<v:textBlock v:margins="rect(4,4,4,4)" v:tabSpace="42.5197"/>
			<v:textRect cx="10.6299" cy="587.303" width="21.26" height="15.9449"/>
			<path d="M2.13 595.28 L19.13 595.28 A2.12595 2.12595 -180 0 0 21.26 593.15 L21.26 581.46 A2.12595 2.12595 -180 0 0 19.13
						 579.33 L2.13 579.33 A2.12595 2.12595 -180 0 0 0 581.46 L0 593.15 A2.12595 2.12595 -180 0 0 2.13 595.28 Z"
					class="st1"/>
			<text x="4.63" y="585.11" class="st18" v:langID="2052"><v:paragraph v:horizAlign="1"/><v:tabList/>出牌<tspan x="4.63"
						dy="1.298em" class="st13">开始</tspan></text>		</g>
		<g id="shape61-175" v:mID="61" v:groupContext="shape" transform="translate(599.528,-437.687)">
			<title>矩形.61</title>
			<desc>出牌前</desc>
			<v:userDefs>
				<v:ud v:nameU="visVersion" v:val="VT0(15):26"/>
			</v:userDefs>
			<v:textBlock v:margins="rect(4,4,4,4)" v:tabSpace="42.5197"/>
			<v:textRect cx="10.6299" cy="587.303" width="21.26" height="15.9449"/>
			<rect x="0" y="579.331" width="21.2598" height="15.9449" class="st3"/>
			<text x="4.63" y="585.11" class="st19" v:langID="2052"><v:paragraph v:horizAlign="1"/><v:tabList/>出牌<tspan x="7.63"
						dy="1.298em" class="st13">前</tspan></text>		</g>
		<g id="shape62-179" v:mID="62" v:groupContext="shape" transform="translate(599.528,-412.264)">
			<title>矩形.62</title>
			<desc>出牌时</desc>
			<v:userDefs>
				<v:ud v:nameU="visVersion" v:val="VT0(15):26"/>
			</v:userDefs>
			<v:textBlock v:margins="rect(4,4,4,4)" v:tabSpace="42.5197"/>
			<v:textRect cx="10.6299" cy="587.303" width="21.26" height="15.9449"/>
			<rect x="0" y="579.331" width="21.2598" height="15.9449" class="st3"/>
			<text x="4.63" y="585.11" class="st19" v:langID="2052"><v:paragraph v:horizAlign="1"/><v:tabList/>出牌<tspan x="7.63"
						dy="1.298em" class="st13">时</tspan></text>		</g>
		<g id="shape63-183" v:mID="63" v:groupContext="shape" transform="translate(599.528,-385.689)">
			<title>矩形.63</title>
			<desc>出牌后</desc>
			<v:userDefs>
				<v:ud v:nameU="visVersion" v:val="VT0(15):26"/>
			</v:userDefs>
			<v:textBlock v:margins="rect(4,4,4,4)" v:tabSpace="42.5197"/>
			<v:textRect cx="10.6299" cy="587.303" width="21.26" height="15.9449"/>
			<rect x="0" y="579.331" width="21.2598" height="15.9449" class="st3"/>
			<text x="4.63" y="585.11" class="st19" v:langID="2052"><v:paragraph v:horizAlign="1"/><v:tabList/>出牌<tspan x="7.63"
						dy="1.298em" class="st13">后</tspan></text>		</g>
		<g id="shape64-187" v:mID="64" v:groupContext="shape" transform="translate(599.528,-359.114)">
			<title>圆角矩形.64</title>
			<desc>出牌结束</desc>
			<v:userDefs>
				<v:ud v:nameU="CTypeTopLeftSnip" v:prompt="" v:val="VT0(0):5"/>
				<v:ud v:nameU="CTypeTopRightSnip" v:prompt="" v:val="VT0(0):5"/>
				<v:ud v:nameU="CTypeBotLeftSnip" v:prompt="" v:val="VT0(0):5"/>
				<v:ud v:nameU="CTypeBotRightSnip" v:prompt="" v:val="VT0(0):5"/>
				<v:ud v:nameU="CornerLockHoriz" v:prompt="" v:val="VT0(1):5"/>
				<v:ud v:nameU="CornerLockVert" v:prompt="" v:val="VT0(1):5"/>
				<v:ud v:nameU="CornerLockDiag" v:prompt="" v:val="VT0(0):5"/>
				<v:ud v:nameU="TopLeftOffset" v:prompt="" v:val="VT0(0.15748031496063):24"/>
				<v:ud v:nameU="TopRightOffset" v:prompt="" v:val="VT0(0.15748031496063):24"/>
				<v:ud v:nameU="BotLeftOffset" v:prompt="" v:val="VT0(0.15748031496063):24"/>
				<v:ud v:nameU="BotRightOffset" v:prompt="" v:val="VT0(0.15748031496063):24"/>
				<v:ud v:nameU="visVersion" v:prompt="" v:val="VT0(15):26"/>
				<v:ud v:nameU="TopLeftOffset" v:prompt="" v:val="VT0(0.02952755852106):1"/>
				<v:ud v:nameU="TopRightOffset" v:prompt="" v:val="VT0(0.02952755852106):1"/>
				<v:ud v:nameU="BotLeftOffset" v:prompt="" v:val="VT0(0.02952755852106):1"/>
				<v:ud v:nameU="BotRightOffset" v:prompt="" v:val="VT0(0.02952755852106):1"/>
			</v:userDefs>
			<v:textBlock v:margins="rect(4,4,4,4)" v:tabSpace="42.5197"/>
			<v:textRect cx="10.6299" cy="587.303" width="21.26" height="15.9449"/>
			<path d="M2.13 595.28 L19.13 595.28 A2.12595 2.12595 -180 0 0 21.26 593.15 L21.26 581.46 A2.12595 2.12595 -180 0 0 19.13
						 579.33 L2.13 579.33 A2.12595 2.12595 -180 0 0 0 581.46 L0 593.15 A2.12595 2.12595 -180 0 0 2.13 595.28 Z"
					class="st1"/>
			<text x="4.63" y="585.11" class="st18" v:langID="2052"><v:paragraph v:horizAlign="1"/><v:tabList/>出牌<tspan x="4.63"
						dy="1.298em" class="st13">结束</tspan></text>		</g>
		<g id="shape65-192" v:mID="65" v:groupContext="shape" v:layerMember="0" transform="translate(603.071,-465.458)">
			<title>动态连接线.65</title>
			<path d="M7.09 597.62 L7.09 600.06" class="st5"/>
		</g>
		<g id="shape69-197" v:mID="69" v:groupContext="shape" v:layerMember="0" transform="translate(603.071,-387.461)">
			<title>动态连接线.69</title>
			<path d="M7.09 597.05 L7.09 600.64" class="st5"/>
		</g>
		<g id="shape71-202" v:mID="71" v:groupContext="shape" v:layerMember="0" transform="translate(603.071,-440.034)">
			<title>动态连接线.71</title>
			<path d="M7.09 597.62 L7.09 600.06" class="st5"/>
		</g>
		<g id="shape73-207" v:mID="73" v:groupContext="shape" v:layerMember="0" transform="translate(603.071,-414.035)">
			<title>动态连接线.73</title>
			<path d="M7.09 597.05 L7.09 600.64" class="st5"/>
		</g>
		<g id="shape74-212" v:mID="74" v:groupContext="shape" transform="translate(599.528,-340.335)">
			<title>圆角矩形.74</title>
			<desc>出牌开始</desc>
			<v:userDefs>
				<v:ud v:nameU="CTypeTopLeftSnip" v:prompt="" v:val="VT0(0):5"/>
				<v:ud v:nameU="CTypeTopRightSnip" v:prompt="" v:val="VT0(0):5"/>
				<v:ud v:nameU="CTypeBotLeftSnip" v:prompt="" v:val="VT0(0):5"/>
				<v:ud v:nameU="CTypeBotRightSnip" v:prompt="" v:val="VT0(0):5"/>
				<v:ud v:nameU="CornerLockHoriz" v:prompt="" v:val="VT0(1):5"/>
				<v:ud v:nameU="CornerLockVert" v:prompt="" v:val="VT0(1):5"/>
				<v:ud v:nameU="CornerLockDiag" v:prompt="" v:val="VT0(0):5"/>
				<v:ud v:nameU="TopLeftOffset" v:prompt="" v:val="VT0(0.15748031496063):24"/>
				<v:ud v:nameU="TopRightOffset" v:prompt="" v:val="VT0(0.15748031496063):24"/>
				<v:ud v:nameU="BotLeftOffset" v:prompt="" v:val="VT0(0.15748031496063):24"/>
				<v:ud v:nameU="BotRightOffset" v:prompt="" v:val="VT0(0.15748031496063):24"/>
				<v:ud v:nameU="visVersion" v:prompt="" v:val="VT0(15):26"/>
				<v:ud v:nameU="TopLeftOffset" v:prompt="" v:val="VT0(0.02952755852106):1"/>
				<v:ud v:nameU="TopRightOffset" v:prompt="" v:val="VT0(0.02952755852106):1"/>
				<v:ud v:nameU="BotLeftOffset" v:prompt="" v:val="VT0(0.02952755852106):1"/>
				<v:ud v:nameU="BotRightOffset" v:prompt="" v:val="VT0(0.02952755852106):1"/>
			</v:userDefs>
			<v:textBlock v:margins="rect(4,4,4,4)" v:tabSpace="42.5197"/>
			<v:textRect cx="10.6299" cy="587.303" width="21.26" height="15.9449"/>
			<path d="M2.13 595.28 L19.13 595.28 A2.12595 2.12595 -180 0 0 21.26 593.15 L21.26 581.46 A2.12595 2.12595 -180 0 0 19.13
						 579.33 L2.13 579.33 A2.12595 2.12595 -180 0 0 0 581.46 L0 593.15 A2.12595 2.12595 -180 0 0 2.13 595.28 Z"
					class="st1"/>
			<text x="4.63" y="585.11" class="st18" v:langID="2052"><v:paragraph v:horizAlign="1"/><v:tabList/>出牌<tspan x="4.63"
						dy="1.298em" class="st13">开始</tspan></text>		</g>
		<g id="shape75-217" v:mID="75" v:groupContext="shape" transform="translate(599.528,-314.911)">
			<title>矩形.75</title>
			<desc>出牌前</desc>
			<v:userDefs>
				<v:ud v:nameU="visVersion" v:val="VT0(15):26"/>
			</v:userDefs>
			<v:textBlock v:margins="rect(4,4,4,4)" v:tabSpace="42.5197"/>
			<v:textRect cx="10.6299" cy="587.303" width="21.26" height="15.9449"/>
			<rect x="0" y="579.331" width="21.2598" height="15.9449" class="st3"/>
			<text x="4.63" y="585.11" class="st19" v:langID="2052"><v:paragraph v:horizAlign="1"/><v:tabList/>出牌<tspan x="7.63"
						dy="1.298em" class="st13">前</tspan></text>		</g>
		<g id="shape76-221" v:mID="76" v:groupContext="shape" transform="translate(599.528,-289.488)">
			<title>矩形.76</title>
			<desc>出牌时</desc>
			<v:userDefs>
				<v:ud v:nameU="visVersion" v:val="VT0(15):26"/>
			</v:userDefs>
			<v:textBlock v:margins="rect(4,4,4,4)" v:tabSpace="42.5197"/>
			<v:textRect cx="10.6299" cy="587.303" width="21.26" height="15.9449"/>
			<rect x="0" y="579.331" width="21.2598" height="15.9449" class="st3"/>
			<text x="4.63" y="585.11" class="st19" v:langID="2052"><v:paragraph v:horizAlign="1"/><v:tabList/>出牌<tspan x="7.63"
						dy="1.298em" class="st13">时</tspan></text>		</g>
		<g id="shape77-225" v:mID="77" v:groupContext="shape" transform="translate(599.528,-262.913)">
			<title>矩形.77</title>
			<desc>出牌后</desc>
			<v:userDefs>
				<v:ud v:nameU="visVersion" v:val="VT0(15):26"/>
			</v:userDefs>
			<v:textBlock v:margins="rect(4,4,4,4)" v:tabSpace="42.5197"/>
			<v:textRect cx="10.6299" cy="587.303" width="21.26" height="15.9449"/>
			<rect x="0" y="579.331" width="21.2598" height="15.9449" class="st3"/>
			<text x="4.63" y="585.11" class="st19" v:langID="2052"><v:paragraph v:horizAlign="1"/><v:tabList/>出牌<tspan x="7.63"
						dy="1.298em" class="st13">后</tspan></text>		</g>
		<g id="shape78-229" v:mID="78" v:groupContext="shape" transform="translate(599.528,-236.339)">
			<title>圆角矩形.78</title>
			<desc>出牌结束</desc>
			<v:userDefs>
				<v:ud v:nameU="CTypeTopLeftSnip" v:prompt="" v:val="VT0(0):5"/>
				<v:ud v:nameU="CTypeTopRightSnip" v:prompt="" v:val="VT0(0):5"/>
				<v:ud v:nameU="CTypeBotLeftSnip" v:prompt="" v:val="VT0(0):5"/>
				<v:ud v:nameU="CTypeBotRightSnip" v:prompt="" v:val="VT0(0):5"/>
				<v:ud v:nameU="CornerLockHoriz" v:prompt="" v:val="VT0(1):5"/>
				<v:ud v:nameU="CornerLockVert" v:prompt="" v:val="VT0(1):5"/>
				<v:ud v:nameU="CornerLockDiag" v:prompt="" v:val="VT0(0):5"/>
				<v:ud v:nameU="TopLeftOffset" v:prompt="" v:val="VT0(0.15748031496063):24"/>
				<v:ud v:nameU="TopRightOffset" v:prompt="" v:val="VT0(0.15748031496063):24"/>
				<v:ud v:nameU="BotLeftOffset" v:prompt="" v:val="VT0(0.15748031496063):24"/>
				<v:ud v:nameU="BotRightOffset" v:prompt="" v:val="VT0(0.15748031496063):24"/>
				<v:ud v:nameU="visVersion" v:prompt="" v:val="VT0(15):26"/>
				<v:ud v:nameU="TopLeftOffset" v:prompt="" v:val="VT0(0.02952755852106):1"/>
				<v:ud v:nameU="TopRightOffset" v:prompt="" v:val="VT0(0.02952755852106):1"/>
				<v:ud v:nameU="BotLeftOffset" v:prompt="" v:val="VT0(0.02952755852106):1"/>
				<v:ud v:nameU="BotRightOffset" v:prompt="" v:val="VT0(0.02952755852106):1"/>
			</v:userDefs>
			<v:textBlock v:margins="rect(4,4,4,4)" v:tabSpace="42.5197"/>
			<v:textRect cx="10.6299" cy="587.303" width="21.26" height="15.9449"/>
			<path d="M2.13 595.28 L19.13 595.28 A2.12595 2.12595 -180 0 0 21.26 593.15 L21.26 581.46 A2.12595 2.12595 -180 0 0 19.13
						 579.33 L2.13 579.33 A2.12595 2.12595 -180 0 0 0 581.46 L0 593.15 A2.12595 2.12595 -180 0 0 2.13 595.28 Z"
					class="st1"/>
			<text x="4.63" y="585.11" class="st18" v:langID="2052"><v:paragraph v:horizAlign="1"/><v:tabList/>出牌<tspan x="4.63"
						dy="1.298em" class="st13">结束</tspan></text>		</g>
		<g id="shape79-234" v:mID="79" v:groupContext="shape" v:layerMember="0" transform="translate(603.071,-342.682)">
			<title>动态连接线.79</title>
			<path d="M7.09 597.62 L7.09 600.06" class="st5"/>
		</g>
		<g id="shape80-239" v:mID="80" v:groupContext="shape" v:layerMember="0" transform="translate(603.071,-264.685)">
			<title>动态连接线.80</title>
			<path d="M7.09 597.05 L7.09 600.64" class="st5"/>
		</g>
		<g id="shape81-244" v:mID="81" v:groupContext="shape" v:layerMember="0" transform="translate(603.071,-317.259)">
			<title>动态连接线.81</title>
			<path d="M7.09 597.62 L7.09 600.06" class="st5"/>
		</g>
		<g id="shape82-249" v:mID="82" v:groupContext="shape" v:layerMember="0" transform="translate(603.071,-291.26)">
			<title>动态连接线.82</title>
			<path d="M7.09 597.05 L7.09 600.64" class="st5"/>
		</g>
	</g>
</svg>
